<?xml version="1.0" encoding="UTF-8"?>
<svg width="19px" height="18px" viewBox="0 0 19 18" version="1.1" xmlns="http://www.w3.org/2000/svg" xmlns:xlink="http://www.w3.org/1999/xlink">
    <!-- Generator: Sketch 50.2 (55047) - http://www.bohemiancoding.com/sketch -->
    <title>ico-favorite-star-on</title>
    <desc>Created with Sketch.</desc>
    <defs></defs>
    <g id="UI-elements" stroke="none" stroke-width="1" fill="none" fill-rule="evenodd">
        <g id="UI---Elemnts" transform="translate(-927.000000, -191.000000)" fill="#9F8AE6">
            <g id="ico-favorite-star-on" transform="translate(927.000000, 191.000000)">
                <path d="M18.5714507,7.07811317 C18.5714507,7.27900627 18.4263613,7.46873864 18.2812718,7.6138281 L14.2299277,11.5647257 L15.1897503,17.1450895 C15.200911,17.2232146 15.200911,17.2901789 15.200911,17.368304 C15.200911,17.6584829 15.0669822,17.9263404 14.7433211,17.9263404 C14.587071,17.9263404 14.4308208,17.8705368 14.296892,17.7924117 L9.28572536,15.1584799 L4.27455867,17.7924117 C4.12946921,17.8705368 3.98437975,17.9263404 3.82812956,17.9263404 C3.50446846,17.9263404 3.359379,17.6584829 3.359379,17.368304 C3.359379,17.2901789 3.37053973,17.2232146 3.38170046,17.1450895 L4.34152303,11.5647257 L0.27901819,7.6138281 C0.145089459,7.46873864 0,7.27900627 0,7.07811317 C0,6.74329134 0.345982555,6.60936261 0.625000745,6.5647197 L6.227686,5.74998659 L8.7388497,0.671855535 C8.83929625,0.459801711 9.02902862,0.214265704 9.28572536,0.214265704 C9.54242209,0.214265704 9.73215446,0.459801711 9.83260101,0.671855535 L12.3437647,5.74998659 L17.94645,6.5647197 C18.2143074,6.60936261 18.5714507,6.74329134 18.5714507,7.07811317 Z" id=""></path>
            </g>
        </g>
    </g>
</svg>